<svg data-v-fde0c5aa="" xmlns="http://www.w3.org/2000/svg" viewBox="0 0 300 300" class="iconLeft"><!----><defs data-v-fde0c5aa=""><!----></defs><rect data-v-fde0c5aa="" fill="transparent" x="0" y="0" width="300px" height="300px" class="logo-background-square"></rect><defs data-v-fde0c5aa=""><linearGradient data-v-fde0c5aa="" gradientTransform="rotate(25)" id="06eb9560-c9f7-4f8d-8b36-8103e32538d3" x1="0%" y1="0%" x2="100%" y2="0%"><stop data-v-fde0c5aa="" offset="0%" stop-color="#B400BB" stop-opacity="1"></stop><stop data-v-fde0c5aa="" offset="100%" stop-color="#00AA9D" stop-opacity="1"></stop></linearGradient></defs><g data-v-fde0c5aa="" id="c4180db9-0448-4ad5-9420-270502ddfdf8" fill="url(#06eb9560-c9f7-4f8d-8b36-8103e32538d3)" transform="matrix(2.6630301475524902,0,0,2.6630301475524902,94.03996117386744,128.28298890483296)"><path d="M4.80 8.61L6.91 5.17L6.91 12.70L8.18 12.39L8.18 3.61L6.92 4.09L4.50 8.09L1.79 3.53L0.61 4.07L0.62 12.70L1.76 12.33L1.76 5.93L3.96 9.54L4.98 8.93L4.80 8.61ZM12.11 6.51L12.11 6.51L12.11 6.51Q11.03 6.35 10.09 7.19L10.09 7.19L10.09 7.19Q9.15 8.03 8.88 9.15L8.88 9.15L8.88 9.15Q8.62 10.27 8.97 11.09L8.97 11.09L8.97 11.09Q9.32 11.91 9.90 12.28L9.90 12.28L9.90 12.28Q10.48 12.66 11.27 12.71L11.27 12.71L11.27 12.71Q12.07 12.76 12.83 12.08L12.83 12.08L12.83 12.08Q13.60 11.41 14.06 10.54L14.06 10.54L13.97 10.47L13.97 10.47Q12.91 11.57 11.84 11.52L11.84 11.52L11.84 11.52Q10.76 11.47 10.42 10.85L10.42 10.85L12.36 9.78L12.36 9.78Q13.81 8.81 13.50 7.75L13.50 7.75L13.50 7.75Q13.19 6.68 12.11 6.51ZM9.89 8.16L9.89 8.16L9.89 8.16Q10.13 7.66 10.74 7.40L10.74 7.40L10.74 7.40Q11.35 7.14 11.90 7.68L11.90 7.68L11.90 7.68Q12.45 8.21 12.28 8.90L12.28 8.90L12.28 8.90Q12.11 9.60 10.21 10.57L10.21 10.57L10.21 10.57Q9.90 10.04 9.78 9.35L9.78 9.35L9.78 9.35Q9.65 8.67 9.89 8.16ZM16.98 4.44L15.74 4.94L15.74 6.84L15.45 6.84L14.30 7.86L15.74 7.86L15.66 10.19L15.66 10.19Q15.67 11.87 16.55 12.42L16.55 12.42L16.55 12.42Q17.42 12.97 18.32 12.56L18.32 12.56L18.32 12.56Q19.21 12.15 19.53 11.09L19.53 11.09L19.43 10.93L19.43 10.93Q18.54 12.06 17.66 11.64L17.66 11.64L17.66 11.64Q16.79 11.22 16.94 9.78L16.94 9.78L16.99 7.85L17.83 7.85L19.90 6.79L16.97 6.79L16.98 4.44ZM23.20 6.43L23.20 6.43L23.20 6.43Q22.29 6.36 21.27 6.88L21.27 6.88L21.27 6.88Q20.25 7.40 20.38 8.65L20.38 8.65L21.94 7.95L21.94 7.95Q21.83 7.10 22.57 6.96L22.57 6.96L22.57 6.96Q23.32 6.82 23.73 7.21L23.73 7.21L23.73 7.21Q24.15 7.61 24.09 8.80L24.09 8.80L24.09 8.80Q23.63 8.50 23.01 8.42L23.01 8.42L23.01 8.42Q22.39 8.33 21.38 8.85L21.38 8.85L21.38 8.85Q20.37 9.37 20.12 10.38L20.12 10.38L20.12 10.38Q19.87 11.38 20.65 12.06L20.65 12.06L20.65 12.06Q21.42 12.73 22.15 12.70L22.15 12.70L22.15 12.70Q22.87 12.67 23.24 12.39L23.24 12.39L23.24 12.39Q23.60 12.10 24.11 11.57L24.11 11.57L24.11 11.57Q24.10 12.44 24.31 12.76L24.31 12.76L25.66 12.04L25.66 12.04Q25.32 11.63 25.39 11.02L25.39 11.02L25.39 8.16L25.39 8.16Q25.42 7.49 24.77 6.99L24.77 6.99L24.77 6.99Q24.12 6.50 23.20 6.43ZM24.14 9.32L24.12 9.68L24.12 11.18L24.12 11.18Q22.96 12.11 22.02 11.55L22.02 11.55L22.02 11.55Q21.07 10.99 20.94 10.16L20.94 10.16L20.94 10.16Q20.82 9.34 21.76 9.31L21.76 9.31L21.76 9.31Q22.71 9.28 23.51 10.00L23.51 10.00L24.14 9.32ZM30.73 8.61L32.85 5.17L32.85 12.70L34.11 12.39L34.11 3.61L32.86 4.09L30.44 8.09L27.73 3.53L26.54 4.07L26.55 12.70L27.70 12.33L27.70 5.93L29.90 9.54L30.91 8.93L30.73 8.61ZM37.95 6.48L37.95 6.48L37.95 6.48Q36.84 6.51 36.13 7.03L36.13 7.03L36.13 7.03Q35.42 7.55 35.10 8.19L35.10 8.19L35.10 8.19Q34.78 8.84 34.76 9.76L34.76 9.76L34.76 9.76Q34.73 10.68 35.42 11.62L35.42 11.62L35.42 11.62Q36.11 12.56 37.12 12.71L37.12 12.71L37.12 12.71Q38.13 12.85 38.99 12.33L38.99 12.33L38.99 12.33Q39.85 11.80 40.28 11.12L40.28 11.12L40.28 11.12Q40.72 10.45 40.74 9.35L40.74 9.35L40.74 9.35Q40.76 8.26 39.91 7.36L39.91 7.36L39.91 7.36Q39.07 6.46 37.95 6.48ZM37.66 7.44L37.66 7.44L37.66 7.44Q38.70 7.82 39.13 8.91L39.13 8.91L39.13 8.91Q39.55 9.99 39.50 10.67L39.50 10.67L39.50 10.67Q39.44 11.34 38.87 11.71L38.87 11.71L38.87 11.71Q38.30 12.08 37.35 11.56L37.35 11.56L37.35 11.56Q36.41 11.05 36.10 9.91L36.10 9.91L36.10 9.91Q35.80 8.77 36.21 7.92L36.21 7.92L36.21 7.92Q36.61 7.07 37.66 7.44ZM45.86 4.13L47.20 3.57L47.20 12.28L45.88 12.78L45.88 11.95L45.88 11.95Q44.61 13.13 43.30 12.57L43.30 12.57L43.30 12.57Q41.99 12.02 41.58 10.68L41.58 10.68L41.58 10.68Q41.17 9.34 42.03 8.09L42.03 8.09L42.03 8.09Q42.90 6.84 43.96 6.55L43.96 6.55L43.96 6.55Q45.01 6.25 45.87 6.77L45.87 6.77L45.86 4.13ZM44.21 7.36L44.21 7.36L44.21 7.36Q43.52 7.26 42.90 7.98L42.90 7.98L42.90 7.98Q42.27 8.70 42.64 9.80L42.64 9.80L42.64 9.80Q43.01 10.90 43.92 11.40L43.92 11.40L43.92 11.40Q44.84 11.89 45.88 11.48L45.88 11.48L45.87 7.88L45.42 8.18L45.42 8.18Q44.91 7.45 44.21 7.36ZM51.95 12.70L53.21 12.19L53.21 6.49L51.88 7.03L51.88 11.16L51.88 11.16Q51.38 11.79 50.52 11.74L50.52 11.74L50.52 11.74Q49.66 11.69 49.57 10.73L49.57 10.73L49.58 6.51L48.28 7.17L48.28 10.96L48.28 10.96Q48.28 11.91 48.95 12.35L48.95 12.35L48.95 12.35Q49.61 12.80 50.23 12.68L50.23 12.68L50.23 12.68Q50.86 12.56 51.95 11.48L51.95 11.48L51.95 12.70ZM55.92 3.60L54.60 4.16L54.60 12.74L55.92 12.14L55.92 3.60ZM60.36 6.51L60.36 6.51L60.36 6.51Q59.28 6.35 58.34 7.19L58.34 7.19L58.34 7.19Q57.40 8.03 57.14 9.15L57.14 9.15L57.14 9.15Q56.88 10.27 57.22 11.09L57.22 11.09L57.22 11.09Q57.57 11.91 58.15 12.28L58.15 12.28L58.15 12.28Q58.73 12.66 59.53 12.71L59.53 12.71L59.53 12.71Q60.32 12.76 61.09 12.08L61.09 12.08L61.09 12.08Q61.86 11.41 62.32 10.54L62.32 10.54L62.22 10.47L62.22 10.47Q61.17 11.57 60.09 11.52L60.09 11.52L60.09 11.52Q59.01 11.47 58.67 10.85L58.67 10.85L60.61 9.78L60.61 9.78Q62.06 8.81 61.76 7.75L61.76 7.75L61.76 7.75Q61.45 6.68 60.36 6.51ZM58.15 8.16L58.15 8.16L58.15 8.16Q58.39 7.66 59.00 7.40L59.00 7.40L59.00 7.40Q59.61 7.14 60.16 7.68L60.16 7.68L60.16 7.68Q60.70 8.21 60.54 8.90L60.54 8.90L60.54 8.90Q60.37 9.60 58.46 10.57L58.46 10.57L58.46 10.57Q58.15 10.04 58.03 9.35L58.03 9.35L58.03 9.35Q57.91 8.67 58.15 8.16Z"></path></g><defs data-v-fde0c5aa=""><linearGradient data-v-fde0c5aa="" gradientTransform="rotate(25)" id="17f7665c-5209-4381-91a5-84009ed5c35a" x1="0%" y1="0%" x2="100%" y2="0%"><stop data-v-fde0c5aa="" offset="0%" stop-color="#B400BB" stop-opacity="1"></stop><stop data-v-fde0c5aa="" offset="100%" stop-color="#00AA9D" stop-opacity="1"></stop></linearGradient></defs><g data-v-fde0c5aa="" id="1cfbad8d-4365-4ae4-8bbe-969019a43753" stroke="none" fill="url(#17f7665c-5209-4381-91a5-84009ed5c35a)" transform="matrix(0.4926605820655823,0,0,0.4926605820655823,36.69917417773249,125.3669707743652)"><style></style><path d="M93.3 12.5H6.7L30.2 50 6.7 87.5h86.6L69.8 50l23.5-37.5zM65.6 43.4l-15-23.9h30.5L65.6 43.4zM61.4 50L50 67.5 38.6 50 50 32.5 61.4 50zM18.8 19.5h30.5l-15 23.9-15.5-23.9zm15.6 37.1l15 23.9H18.8l15.6-23.9zm46.8 23.9H50.6l15-23.9 15.6 23.9z"></path></g><!----></svg>